<svg width="56" height="56" viewBox="0 0 56 56" fill="none" xmlns="http://www.w3.org/2000/svg">
<path fill-rule="evenodd" clip-rule="evenodd" d="M28.0002 32.9511L40.3739 45.3248C41.0305 45.9814 41.921 46.3502 42.8495 46.3502C43.7781 46.3502 44.6686 45.9814 45.3252 45.3248C45.9818 44.6682 46.3507 43.7777 46.3507 42.8491C46.3507 41.9205 45.9818 41.03 45.3252 40.3734L32.9469 27.9998L45.3229 15.6261C45.6478 15.301 45.9056 14.9151 46.0814 14.4903C46.2572 14.0656 46.3476 13.6104 46.3475 13.1508C46.3474 12.6911 46.2568 12.236 46.0808 11.8113C45.9047 11.3867 45.6468 11.0009 45.3217 10.6759C44.9966 10.351 44.6107 10.0932 44.186 9.91743C43.7612 9.74163 43.3061 9.6512 42.8464 9.65131C42.3867 9.65141 41.9316 9.74206 41.5069 9.91807C41.0823 10.0941 40.6965 10.352 40.3715 10.6771L28.0002 23.0508L15.6265 10.6771C15.3038 10.3427 14.9178 10.0759 14.4908 9.89222C14.0639 9.70859 13.6047 9.61182 13.14 9.60757C12.6752 9.60331 12.2143 9.69165 11.7841 9.86743C11.3539 10.0432 10.963 10.3029 10.6342 10.6314C10.3054 10.9598 10.0454 11.3505 9.86917 11.7806C9.69298 12.2106 9.60421 12.6714 9.60803 13.1362C9.61185 13.6009 9.70818 14.0602 9.89141 14.4873C10.0746 14.9144 10.3411 15.3007 10.6752 15.6238L23.0535 27.9998L10.6775 40.3758C10.3434 40.6988 10.077 41.0851 9.89374 41.5122C9.71051 41.9393 9.61418 42.3986 9.61036 42.8634C9.60654 43.3281 9.69532 43.7889 9.8715 44.219C10.0477 44.649 10.3078 45.0397 10.6365 45.3682C10.9653 45.6966 11.3562 45.9563 11.7864 46.1321C12.2167 46.3079 12.6776 46.3962 13.1423 46.392C13.607 46.3877 14.0662 46.2909 14.4932 46.1073C14.9201 45.9237 15.3062 45.6569 15.6289 45.3224L28.0002 32.9511Z" fill="#525252"/>
</svg>
