<svg width="24" height="24" viewBox="0 0 24 24" fill="none" xmlns="http://www.w3.org/2000/svg">
<path d="M12 9.56275e-05C8.81752 9.56275e-05 5.76546 1.26432 3.51458 3.51466C1.26423 5.7652 0 8.81725 0 12C0 15.1828 1.26423 18.2346 3.51458 20.4854C5.76513 22.7358 8.81719 24 12 24C15.1828 24 18.2345 22.7358 20.4854 20.4854C22.7358 18.2349 24 15.1828 24 12C23.9964 8.81849 22.7311 5.76841 20.4815 3.51849C18.2319 1.26891 15.1818 0.00354016 11.9999 0L12 9.56275e-05ZM12 5.30221C12.296 5.30221 12.5801 5.41975 12.7894 5.62923C12.9987 5.83853 13.1162 6.12242 13.1162 6.4184C13.1162 6.7146 12.9987 6.99846 12.7894 7.20776C12.5801 7.41706 12.296 7.53479 12 7.53479C11.704 7.53479 11.4199 7.41706 11.2106 7.20776C11.0013 6.99846 10.8838 6.71458 10.8838 6.4184C10.8838 6.12239 11.0013 5.83853 11.2106 5.62923C11.4199 5.41975 11.704 5.30221 12 5.30221ZM13.6744 18.4185H10.3256C10.0264 18.4185 9.75003 18.2589 9.60052 17.9999C9.45102 17.7409 9.45102 17.4217 9.60052 17.1627C9.75003 16.9037 10.0264 16.7441 10.3256 16.7441H11.1628V10.5565C10.9126 10.4681 10.7193 10.2661 10.6416 10.0123C10.564 9.75852 10.6113 9.4829 10.769 9.26967C10.9268 9.05626 11.1764 8.93031 11.4418 8.93012H12C12.222 8.93012 12.435 9.01833 12.592 9.1753C12.749 9.33246 12.8372 9.54531 12.8372 9.76732V16.7438H13.6744V16.744C13.9736 16.744 14.2499 16.9036 14.3994 17.1626C14.5489 17.4216 14.5489 17.7408 14.3994 17.9998C14.2499 18.2588 13.9735 18.4184 13.6744 18.4184L13.6744 18.4185Z" fill="#0F5FB2"/>
</svg>
