<svg width="253" height="253" viewBox="0 0 253 253" fill="none" xmlns="http://www.w3.org/2000/svg">
<g filter="url(#filter0_d_2404_1170)">
<path d="M125.226 5.017C114.649 5.30355 104.489 9.20233 96.4355 16.0649L92.081 19.7825L90.4364 21.068C87.036 23.469 83.0513 24.9093 78.9016 25.2373L73.1804 25.7005L70.8642 25.9437C60.3436 27.3213 50.6147 32.2686 43.3041 39.9587C35.9936 47.6487 31.5444 57.6152 30.7005 68.192L30.2373 73.9016L29.9825 75.963C29.2771 80.0704 27.4767 83.9113 24.7709 87.081L21.0649 91.4355L19.4899 93.3928C13.0734 101.806 9.73045 112.163 10.017 122.74C10.3036 133.317 14.2023 143.477 21.0649 151.531L24.7825 155.897L26.068 157.541C28.469 160.942 29.9093 164.926 30.2373 169.076L30.7005 174.797L30.9437 177.113C32.3213 187.634 37.2686 197.363 44.9587 204.673C52.6487 211.984 62.6152 216.433 73.192 217.277L78.9016 217.74L80.963 217.984C85.0704 218.689 88.9113 220.489 92.081 223.195L96.4355 226.913L98.3928 228.488C106.807 234.903 117.165 238.244 127.742 237.955C138.319 237.666 148.478 233.765 156.53 226.901L160.897 223.195L162.541 221.91C165.942 219.509 169.926 218.068 174.076 217.74L179.786 217.277L182.113 217.034C192.634 215.656 202.363 210.709 209.673 203.019C216.984 195.329 221.433 185.362 222.277 174.786L222.729 169.076L222.984 167.015C223.689 162.907 225.489 159.066 228.195 155.897L231.913 151.542L233.488 149.573C239.904 141.16 243.247 130.804 242.961 120.226C242.674 109.649 238.775 99.4892 231.913 91.4355L228.184 87.081L226.91 85.4365C224.509 82.036 223.068 78.0513 222.74 73.9016L222.277 68.1804L222.034 65.8642C220.656 55.3436 215.709 45.6147 208.019 38.3042C200.329 30.9936 190.362 26.5444 179.786 25.7005L174.076 25.2373L172.015 24.9825C167.907 24.2771 164.066 22.4767 160.897 19.7709L156.542 16.0649L154.573 14.4899C146.16 8.0734 135.803 4.73045 125.226 5.017Z" stroke="url(#paint0_linear_2404_1170)" stroke-width="4"/>
<path d="M143.155 138.155C146.413 134.898 150.832 133.067 155.439 133.067C160.046 133.067 164.465 134.898 167.723 138.155C170.98 141.413 172.811 145.832 172.811 150.439C172.811 155.046 170.98 159.465 167.723 162.723C164.465 165.981 160.046 167.811 155.439 167.811C150.832 167.811 146.413 165.981 143.155 162.723C139.897 159.465 138.067 155.046 138.067 150.439C138.067 145.832 139.897 141.413 143.155 138.155Z" stroke="url(#paint1_linear_2404_1170)" stroke-width="4"/>
<path d="M83.5542 148.042L153.042 78.5544C155.226 76.4448 158.151 75.2775 161.188 75.3039C164.224 75.3303 167.129 76.5483 169.276 78.6955C171.424 80.8428 172.642 83.7475 172.668 86.784C172.694 89.8206 171.527 92.746 169.417 94.9303L99.93 164.418C98.8617 165.524 97.5838 166.406 96.1708 167.013C94.7578 167.62 93.2382 167.939 91.7004 167.953C90.1627 167.966 88.6376 167.673 87.2144 167.091C85.7911 166.509 84.498 165.649 83.4106 164.561C82.3232 163.474 81.4633 162.181 80.881 160.757C80.2987 159.334 80.0056 157.809 80.019 156.271C80.0324 154.734 80.3518 153.214 80.9588 151.801C81.5658 150.388 82.448 149.11 83.5542 148.042Z" stroke="url(#paint2_linear_2404_1170)" stroke-width="4"/>
<path d="M85.249 80.2492C88.5068 76.9914 92.9254 75.1611 97.5327 75.1611C102.14 75.1611 106.559 76.9914 109.816 80.2492C113.074 83.5071 114.905 87.9257 114.905 92.533C114.905 97.1403 113.074 101.559 109.816 104.817C106.559 108.075 102.14 109.905 97.5327 109.905C92.9254 109.905 88.5068 108.075 85.249 104.817C81.9911 101.559 80.1609 97.1403 80.1609 92.533C80.1609 87.9257 81.9911 83.5071 85.249 80.2492Z" stroke="url(#paint3_linear_2404_1170)" stroke-width="4"/>
</g>
<defs>
<filter id="filter0_d_2404_1170" x="-12" y="-17" width="276.978" height="276.973" filterUnits="userSpaceOnUse" color-interpolation-filters="sRGB">
<feFlood flood-opacity="0" result="BackgroundImageFix"/>
<feColorMatrix in="SourceAlpha" type="matrix" values="0 0 0 0 0 0 0 0 0 0 0 0 0 0 0 0 0 0 127 0" result="hardAlpha"/>
<feOffset dy="5"/>
<feGaussianBlur stdDeviation="4"/>
<feComposite in2="hardAlpha" operator="out"/>
<feColorMatrix type="matrix" values="0 0 0 0 0.117647 0 0 0 0 0.517647 0 0 0 0 0.85098 0 0 0 0.1 0"/>
<feBlend mode="multiply" in2="BackgroundImageFix" result="effect1_dropShadow_2404_1170"/>
<feBlend mode="normal" in="SourceGraphic" in2="effect1_dropShadow_2404_1170" result="shape"/>
</filter>
<linearGradient id="paint0_linear_2404_1170" x1="126.489" y1="5" x2="126.489" y2="237.972" gradientUnits="userSpaceOnUse">
<stop stop-color="#9FCDF4"/>
<stop offset="1" stop-color="#EBECED"/>
</linearGradient>
<linearGradient id="paint1_linear_2404_1170" x1="126.415" y1="75.1611" x2="126.415" y2="167.953" gradientUnits="userSpaceOnUse">
<stop stop-color="#9FCDF4"/>
<stop offset="1" stop-color="#EBECED"/>
</linearGradient>
<linearGradient id="paint2_linear_2404_1170" x1="126.415" y1="75.1611" x2="126.415" y2="167.953" gradientUnits="userSpaceOnUse">
<stop stop-color="#9FCDF4"/>
<stop offset="1" stop-color="#EBECED"/>
</linearGradient>
<linearGradient id="paint3_linear_2404_1170" x1="126.415" y1="75.1611" x2="126.415" y2="167.953" gradientUnits="userSpaceOnUse">
<stop stop-color="#9FCDF4"/>
<stop offset="1" stop-color="#EBECED"/>
</linearGradient>
</defs>
</svg>
