<svg width="290" height="272" viewBox="0 0 290 272" fill="none" xmlns="http://www.w3.org/2000/svg">
<g filter="url(#filter0_d_2404_1174)">
<path fill-rule="evenodd" clip-rule="evenodd" d="M262.083 154.833C262.726 152.612 262.861 150.286 262.479 148.002C262.097 145.718 261.206 143.525 259.863 141.563L187.133 35.9404C184.688 32.3913 180.901 29.8043 176.523 28.6939C172.146 27.5836 167.499 28.0313 163.508 29.948L44.7508 86.9997C42.5491 88.064 40.6176 89.5435 39.0792 91.3439C37.5409 93.1442 36.4294 95.2261 35.8155 97.4569L10.5956 186.557C9.39211 190.809 10.071 195.352 12.4831 199.187C14.8952 203.023 18.8432 205.838 23.4596 207.014L214.93 255.581C219.551 256.753 224.46 256.187 228.579 254.007C232.698 251.827 235.689 248.212 236.893 243.958L262.117 154.842L262.083 154.833Z" stroke="url(#paint0_linear_2404_1174)" stroke-width="4"/>
<path d="M144.08 96.7657L168.684 103.006C170.308 103.419 171.686 104.436 172.519 105.803C173.347 107.161 173.562 108.756 173.143 110.24L165.726 136.442L193.349 143.448C194.981 143.862 196.358 144.87 197.188 146.231C198.016 147.589 198.231 149.184 197.811 150.668L191.223 173.945C190.803 175.428 189.774 176.708 188.34 177.492C186.902 178.277 185.177 178.498 183.546 178.085L155.922 171.078L148.506 197.28C148.086 198.763 147.057 200.043 145.623 200.827C144.185 201.613 142.459 201.833 140.828 201.419L116.224 195.179C114.593 194.765 113.214 193.757 112.384 192.396C111.556 191.038 111.341 189.443 111.761 187.96L119.178 161.758L91.5848 154.759C89.9532 154.345 88.575 153.337 87.7451 151.976C86.917 150.618 86.702 149.023 87.1218 147.54L93.7147 124.248C94.1346 122.764 95.1633 121.485 96.5976 120.701C98.035 119.915 99.761 119.694 101.393 120.108L128.986 127.107L136.402 100.905C136.822 99.4217 137.851 98.1422 139.285 97.3582C140.722 96.5726 142.448 96.3518 144.08 96.7657Z" stroke="url(#paint1_linear_2404_1174)" stroke-width="3"/>
</g>
<defs>
<filter id="filter0_d_2404_1174" x="-12" y="6.11035" width="296.705" height="272.054" filterUnits="userSpaceOnUse" color-interpolation-filters="sRGB">
<feFlood flood-opacity="0" result="BackgroundImageFix"/>
<feColorMatrix in="SourceAlpha" type="matrix" values="0 0 0 0 0 0 0 0 0 0 0 0 0 0 0 0 0 0 127 0" result="hardAlpha"/>
<feOffset dy="5"/>
<feGaussianBlur stdDeviation="4"/>
<feComposite in2="hardAlpha" operator="out"/>
<feColorMatrix type="matrix" values="0 0 0 0 0.117647 0 0 0 0 0.517647 0 0 0 0 0.85098 0 0 0 0.1 0"/>
<feBlend mode="multiply" in2="BackgroundImageFix" result="effect1_dropShadow_2404_1174"/>
<feBlend mode="normal" in="SourceGraphic" in2="effect1_dropShadow_2404_1174" result="shape"/>
</filter>
<linearGradient id="paint0_linear_2404_1174" x1="176.549" y1="28.7005" x2="124.799" y2="232.719" gradientUnits="userSpaceOnUse">
<stop stop-color="#9FCDF4"/>
<stop offset="1" stop-color="#EBECED"/>
</linearGradient>
<linearGradient id="paint1_linear_2404_1174" x1="156.805" y1="98.4466" x2="130.93" y2="200.456" gradientUnits="userSpaceOnUse">
<stop stop-color="#9FCDF4"/>
<stop offset="1" stop-color="#EBECED"/>
</linearGradient>
</defs>
</svg>
