<svg width="70" height="70" viewBox="0 0 70 70" fill="none" xmlns="http://www.w3.org/2000/svg">
<path d="M34.9984 6.33301C35.5245 6.33301 36.0501 6.47475 36.5804 6.77539C37.0579 7.04633 37.4189 7.44913 37.6634 8.00391L37.6781 8.03223L37.6898 8.06152L44.1937 23.418L60.9681 24.8799L60.9994 24.8828L61.0296 24.8867C61.7405 24.9931 62.2529 25.2184 62.6068 25.5264C62.9907 25.8607 63.2857 26.2953 63.4867 26.8447C63.681 27.3763 63.7177 27.9161 63.597 28.4746C63.4826 29.0028 63.1936 29.4899 62.6956 29.9346L62.6888 29.9404L62.682 29.9473L49.9427 40.8945L53.7591 57.1973L53.7601 57.1992C53.9088 57.8407 53.8526 58.3873 53.6253 58.8633C53.3747 59.3878 53.027 59.8207 52.5794 60.165C52.1498 60.4952 51.6453 60.6891 51.0531 60.7402C50.4913 60.7886 49.9455 60.6529 49.4046 60.3086L49.3929 60.3008L49.3861 60.2969L49.3822 60.2939L34.9984 51.6748L20.6038 60.3008L20.5921 60.3066L20.5931 60.3076C20.0509 60.6508 19.5046 60.7867 18.9427 60.7402C18.3519 60.6912 17.849 60.4974 17.4193 60.165C17.0268 59.8614 16.7108 59.4924 16.4701 59.0547L16.3714 58.8633C16.217 58.541 16.1437 58.1846 16.1585 57.7861L16.1097 57.7373L20.0531 40.8936L7.31381 29.9453L7.29427 29.9277C6.80422 29.4838 6.51675 28.9995 6.40267 28.4727C6.28138 27.9122 6.31906 27.3723 6.51107 26.8438C6.70971 26.2972 7.00523 25.8622 7.39193 25.5254C7.74973 25.2142 8.26398 24.9903 8.97299 24.8867L9.00228 24.8818L9.0306 24.8799L25.8021 23.418L32.307 8.06152L32.3197 8.03223L32.3333 8.00391L32.3363 7.99805C32.5808 7.44618 32.9404 7.04539 33.4163 6.77539C33.9467 6.47464 34.4723 6.33306 34.9984 6.33301ZM29.7171 28.8271L16.4076 30.0068L26.5218 38.7988L23.513 51.7676L34.9964 44.8789L46.4818 51.8604L43.6097 39.3887L43.4749 38.7998L53.598 30.0918L40.2796 28.9121L34.9994 16.5977L29.7171 28.8271Z" fill="url(#paint0_linear_2404_1180)"/>
<defs>
<linearGradient id="paint0_linear_2404_1180" x1="34.9997" y1="6.33301" x2="34.9997" y2="60.7497" gradientUnits="userSpaceOnUse">
<stop stop-color="#9FCDF4"/>
<stop offset="1" stop-color="#EBECED"/>
</linearGradient>
</defs>
</svg>
