<svg width="70" height="70" viewBox="0 0 70 70" fill="none" xmlns="http://www.w3.org/2000/svg">
<path d="M46.9026 34.5538L34.9997 8.75L11.7539 59.1354C11.5497 59.7188 11.7043 60.3721 12.1476 60.8038C12.5851 61.2354 13.2385 61.3667 13.8101 61.1421L34.9997 53.9583L43.8576 56.9625M55.4164 64.1667V64.1958M55.4164 55.4167C56.7239 55.4125 57.9922 54.9698 59.0184 54.1594C60.0445 53.3491 60.7692 52.2179 61.0763 50.947C61.3835 49.676 61.2554 48.3388 60.7125 47.1492C60.1697 45.9597 59.2435 44.9867 58.0822 44.3858C56.9219 43.7915 55.5946 43.6072 54.3162 43.8629C53.0379 44.1187 51.8837 44.7995 51.0414 45.7946" stroke="url(#paint0_linear_2404_1182)" stroke-width="6" stroke-linecap="round" stroke-linejoin="round"/>
<defs>
<linearGradient id="paint0_linear_2404_1182" x1="36.4524" y1="8.75" x2="36.4524" y2="64.1958" gradientUnits="userSpaceOnUse">
<stop stop-color="#9FCDF4"/>
<stop offset="1" stop-color="#EBECED"/>
</linearGradient>
</defs>
</svg>
