<svg width="70" height="70" viewBox="0 0 70 70" fill="none" xmlns="http://www.w3.org/2000/svg">
<path d="M56.3781 34.7813C58.5962 34.0288 59.6571 31.5591 58.7231 29.2732C57.789 26.9654 55.2165 25.7075 52.9984 26.4622C50.7803 27.2169 49.7171 29.6844 50.6512 31.9725C51.5853 34.2585 54.1578 35.5382 56.3759 34.7835M28.0981 29.2819C29.03 31.5679 27.9712 34.0375 25.7531 34.7922C23.5328 35.5229 20.9603 34.2672 20.0262 31.9791C19.0943 29.6932 20.1531 27.2016 22.3712 26.4688C24.5915 25.7141 27.164 26.9719 28.0981 29.2819Z" fill="url(#paint0_linear_2404_1184)"/>
<path d="M65.6469 34.1687V32.8212H65.6534V28.4375C65.6534 28.3478 65.6644 28.3063 65.6666 28.2953L65.6841 28.2559L65.7956 28.1094C65.87 28.0263 65.9553 27.9366 66.0997 27.7922L66.1413 27.7484C66.7144 27.1688 67.795 26.0772 67.8125 24.1019V24.0494C67.8108 22.8946 67.3519 21.7874 66.5361 20.9701C65.7204 20.1527 64.6142 19.6915 63.4594 19.6875H43.7281C43.489 19.6875 43.2534 19.7065 43.0216 19.7444C41.0082 19.9926 39.1427 20.9293 37.7409 22.3956C37.5484 22.5794 37.3691 22.7587 37.2159 22.9119L37.2072 22.9206C36.7063 23.4194 36.4547 23.6556 36.1725 23.8175C35.9537 23.9422 35.6322 24.0712 35.0066 24.0712C34.3394 24.0712 34.0156 23.94 33.81 23.8219C33.5366 23.6688 33.2916 23.4391 32.7797 22.9228L32.7687 22.9119C32.6003 22.7434 32.4034 22.5422 32.1847 22.3366C30.8031 20.9132 28.979 20.0015 27.0112 19.7509C26.767 19.7089 26.5197 19.6877 26.2719 19.6875H6.54063C4.1125 19.6875 2.1875 21.6781 2.1875 24.0603V24.0625C2.1875 26.0684 3.30312 27.1775 3.88937 27.7594L3.93312 27.8031C4.08187 27.9497 4.17156 28.0394 4.24813 28.1269C4.3 28.1853 4.34547 28.2491 4.38375 28.3172C4.39541 28.3621 4.39984 28.4087 4.39687 28.455V28.7328C4.38812 28.9113 4.38375 29.09 4.38375 29.2688V34.1687C4.38375 41.6456 10.0056 48.1031 17.3622 48.1031H21.6781C29.1812 48.1031 35 41.5297 35 33.8406C35 41.5297 40.8056 48.0812 48.3153 48.0812H52.6356C59.9594 48.0812 65.6469 41.6872 65.6469 34.1687ZM61.2566 34.1469C61.2566 39.3969 57.4612 43.7609 52.6159 43.7609H48.2934C43.2841 43.7609 39.3903 39.2656 39.3903 33.8188V29.2688C39.4078 26.4031 41.3678 24.0625 44.0125 24.0625H56.6125C59.2594 24.0625 61.2566 26.4031 61.2566 29.2688V34.1469ZM21.6781 43.7587H17.3819C12.5409 43.7587 8.75656 39.4187 8.75656 34.1687V29.2688C8.75656 26.4031 10.7472 24.0625 13.3875 24.0625H25.9941C28.6366 24.0625 30.6381 26.4031 30.6381 29.2688V33.8406C30.6381 39.2656 26.7006 43.7587 21.6781 43.7587Z" fill="url(#paint1_linear_2404_1184)"/>
<defs>
<linearGradient id="paint0_linear_2404_1184" x1="39.3751" y1="26.2432" x2="39.3751" y2="35.0005" gradientUnits="userSpaceOnUse">
<stop stop-color="#9FCDF4"/>
<stop offset="1" stop-color="#EBECED"/>
</linearGradient>
<linearGradient id="paint1_linear_2404_1184" x1="35" y1="19.6875" x2="35" y2="48.1031" gradientUnits="userSpaceOnUse">
<stop stop-color="#9FCDF4"/>
<stop offset="1" stop-color="#EBECED"/>
</linearGradient>
</defs>
</svg>
