<svg width="70" height="70" viewBox="0 0 70 70" fill="none" xmlns="http://www.w3.org/2000/svg">
<path d="M42.9541 8.75C45.0638 8.75 47.0865 9.58015 48.5781 11.0566C50.0696 12.5332 50.9092 14.5361 50.9092 16.625L50.9023 16.9609C50.8744 17.6297 50.7604 18.2919 50.5635 18.9316L50.458 19.25H58.8633C60.2695 19.25 61.6179 19.803 62.6123 20.7871C63.6069 21.7717 64.166 23.1077 64.166 24.5V32.375C64.166 33.0701 63.8884 33.7385 63.3906 34.2314C62.8932 34.7237 62.2174 35 61.5146 35V56C61.5146 57.3923 60.9555 58.7283 59.9609 59.7129C59.0286 60.6356 57.7851 61.1788 56.4746 61.2432L56.2119 61.25H13.7871C12.3812 61.2499 11.0325 60.6971 10.0381 59.7129C9.04354 58.7283 8.48438 57.3923 8.48438 56V35C7.78109 34.9999 7.10722 34.7231 6.61035 34.2314C6.1134 33.7395 5.83301 33.0716 5.83301 32.375V24.5C5.83301 23.1077 6.39217 21.7717 7.38672 20.7871C8.38115 19.8029 9.72975 19.2501 11.1357 19.25H19.541C19.2413 18.4066 19.0895 17.5184 19.0908 16.625C19.0908 14.5365 19.9293 12.5335 21.4209 11.0566C22.9125 9.58018 24.9353 8.75006 27.0449 8.75C29.5306 8.75 31.7372 9.90334 33.2051 11.6484L33.4883 12.0049V11.9727L35 13.998L36.5107 11.9775V12.0049C37.9692 10.0622 40.303 8.75004 42.9541 8.75ZM13.7871 56H32.3486V35H13.7871V56ZM37.6514 56H56.2119V35H37.6514V56ZM11.1357 29.75H32.3486V24.5H11.1357V29.75ZM37.6514 29.75H58.8633V24.5H37.6514V29.75ZM27.0449 14C26.3421 14.0001 25.6673 14.2771 25.1699 14.7695C24.6751 15.2597 24.3962 15.9231 24.3936 16.6152L24.3975 16.7559L24.4209 16.9971C24.5016 17.5553 24.7623 18.0768 25.1699 18.4805C25.6673 18.9729 26.3421 19.2499 27.0449 19.25C27.748 19.25 28.4226 18.9727 28.9199 18.4805C29.4168 17.9884 29.6963 17.3213 29.6963 16.625C29.6963 15.9287 29.4168 15.2616 28.9199 14.7695C28.4227 14.2776 27.7478 14 27.0449 14ZM42.9541 14C42.2512 14 41.5766 14.2771 41.0791 14.7695C40.5819 15.262 40.3027 15.9293 40.3027 16.625C40.3027 17.3207 40.5819 17.988 41.0791 18.4805C41.5766 18.9729 42.2512 19.25 42.9541 19.25C43.657 19.25 44.3316 18.973 44.8291 18.4805C45.3263 17.988 45.6055 17.3208 45.6055 16.625C45.6055 15.9292 45.3263 15.262 44.8291 14.7695C44.3316 14.277 43.657 14 42.9541 14Z" fill="url(#paint0_linear_2404_1191)"/>
<defs>
<linearGradient id="paint0_linear_2404_1191" x1="34.9995" y1="8.75" x2="34.9995" y2="61.25" gradientUnits="userSpaceOnUse">
<stop stop-color="#9FCDF4"/>
<stop offset="1" stop-color="#EBECED"/>
</linearGradient>
</defs>
</svg>
