<svg width="24" height="24" viewBox="0 0 24 24" fill="none" xmlns="http://www.w3.org/2000/svg">
<path d="M20 11C20.5523 11 21 11.4477 21 12C21 12.5523 20.5523 13 20 13L4 13C3.44772 13 3 12.5523 3 12C3 11.4477 3.44772 11 4 11L20 11Z" fill="url(#paint0_linear_2471_1223)"/>
<path d="M11 4C11 3.44772 11.4477 3 12 3C12.5523 3 13 3.44772 13 4V20C13 20.5523 12.5523 21 12 21C11.4477 21 11 20.5523 11 20V4Z" fill="url(#paint1_linear_2471_1223)"/>
<defs>
<linearGradient id="paint0_linear_2471_1223" x1="1.1875" y1="13.2924" x2="18.9624" y2="16.1012" gradientUnits="userSpaceOnUse">
<stop offset="0.00679618" stop-color="#12AAFF"/>
<stop offset="1" stop-color="#0070D1"/>
</linearGradient>
<linearGradient id="paint1_linear_2471_1223" x1="13.2924" y1="22.8125" x2="16.1012" y2="5.03764" gradientUnits="userSpaceOnUse">
<stop offset="0.00679618" stop-color="#12AAFF"/>
<stop offset="1" stop-color="#0070D1"/>
</linearGradient>
</defs>
</svg>
