<svg width="230" height="230" viewBox="0 0 230 230" fill="none" xmlns="http://www.w3.org/2000/svg">
<g clip-path="url(#clip0_265_290)">
<circle cx="115" cy="115" r="115" fill="url(#paint0_linear_265_290)"/>
<path d="M115 189C155.869 189 189 155.869 189 115C189 74.1309 155.869 41 115 41C74.1309 41 41 74.1309 41 115C41 155.869 74.1309 189 115 189Z" stroke="white" stroke-width="2" stroke-miterlimit="10"/>
<path d="M101 129.7H88.6V146.2H85.9V129.7H53V127.7L84.6 89H87.8L56.6 127.3H85.9V112.7H88.6V127.3H101V129.7Z" fill="white"/>
<path d="M132.6 117.7C136.3 120.6 138.2 124.7 138.2 130C138.2 133.2 137.5 136 136 138.5C134.5 141 132.3 143 129.4 144.4C126.5 145.8 122.9 146.5 118.7 146.5C114.6 146.5 110.7 145.8 107.1 144.3C103.5 142.8 100.8 140.9 98.8999 138.6L100.5 136.6C102.2 138.8 104.7 140.6 107.9 141.9C111.2 143.3 114.8 143.9 118.7 143.9C124.1 143.9 128.2 142.6 131.1 140.1C134 137.5 135.4 134.2 135.4 130C135.4 125.4 133.8 121.9 130.5 119.5C127.2 117.1 121.7 115.9 113.8 115.9H102.7L105.7 88.8999H135.2V91.3999H108.1L105.6 113.3H114.4C122.8 113.4 128.9 114.9 132.6 117.7Z" fill="white"/>
<path d="M177.5 118.8H161.7V134.2H159.2V118.8H143.5V116.4H159.2V101H161.7V116.5H177.5V118.8Z" fill="white"/>
</g>
<defs>
<linearGradient id="paint0_linear_265_290" x1="-23.1597" y1="263.628" x2="209.563" y2="267.714" gradientUnits="userSpaceOnUse">
<stop offset="0.00679618" stop-color="#12AAFF" stop-opacity="0.83"/>
<stop offset="1" stop-color="#1577CA"/>
</linearGradient>
<clipPath id="clip0_265_290">
<rect width="230" height="230" fill="white"/>
</clipPath>
</defs>
</svg>
