<svg width="230" height="230" viewBox="0 0 230 230" fill="none" xmlns="http://www.w3.org/2000/svg">
<g clip-path="url(#clip0_265_311)">
<circle cx="115" cy="115" r="115" fill="url(#paint0_linear_265_311)"/>
<path d="M115 189C155.869 189 189 155.869 189 115C189 74.1309 155.869 41 115 41C74.1309 41 41 74.1309 41 115C41 155.869 74.1309 189 115 189Z" stroke="white" stroke-width="2" stroke-miterlimit="10"/>
<path d="M145.552 58.0779C123.767 79.8636 150.636 106.733 128.935 128.435C107.319 150.222 80.3639 123.266 58.5781 145.052" stroke="white" stroke-width="2" stroke-miterlimit="10"/>
<path d="M172.422 84.9479C150.637 106.734 123.767 79.8638 102.065 101.565C80.2785 123.181 107.234 150.136 85.4482 171.922" stroke="white" stroke-width="2" stroke-miterlimit="10"/>
<path d="M111.258 95.2009L134.946 118.889" stroke="white" stroke-width="2"/>
<path d="M138.127 68.3308L161.816 92.0189" stroke="white" stroke-width="2"/>
<path d="M95.3477 111.111L119.036 134.799" stroke="white" stroke-width="2"/>
<path d="M68.4775 137.981L92.1656 161.669" stroke="white" stroke-width="2"/>
</g>
<defs>
<linearGradient id="paint0_linear_265_311" x1="-23.1597" y1="263.628" x2="209.563" y2="267.714" gradientUnits="userSpaceOnUse">
<stop offset="0.00679618" stop-color="#12AAFF" stop-opacity="0.83"/>
<stop offset="1" stop-color="#1577CA"/>
</linearGradient>
<clipPath id="clip0_265_311">
<rect width="230" height="230" fill="white"/>
</clipPath>
</defs>
</svg>
