<svg width="230" height="230" viewBox="0 0 230 230" fill="none" xmlns="http://www.w3.org/2000/svg">
<g clip-path="url(#clip0_265_296)">
<circle cx="115" cy="115" r="115" fill="url(#paint0_linear_265_296)"/>
<path d="M115 189C155.869 189 189 155.869 189 115C189 74.1309 155.869 41 115 41C74.1309 41 41 74.1309 41 115C41 155.869 74.1309 189 115 189Z" stroke="white" stroke-width="2" stroke-miterlimit="10"/>
<path d="M167 115L154.436 127.686L115.5 167L76.4396 127.686L64 115" stroke="white" stroke-width="2" stroke-miterlimit="10"/>
<path d="M154 128C150.262 124.336 145.901 121.16 141.166 118.595C138.425 117.13 135.435 115.908 132.444 114.809C126.962 112.977 121.105 112 115 112C108.895 112 103.038 112.977 97.5559 114.809C94.5655 115.786 91.5751 117.008 88.8339 118.595C84.099 121.16 79.738 124.214 76 128" stroke="white" stroke-width="2" stroke-miterlimit="10"/>
<path d="M89 118C94.4005 127.025 104.322 133 115.5 133C126.678 133 136.474 127.025 142 118" stroke="white" stroke-width="2" stroke-miterlimit="10"/>
<path d="M98 115C101.875 120.425 108.25 124 115.5 124C122.75 124 129.125 120.425 133 115" stroke="white" stroke-width="2" stroke-miterlimit="10"/>
<mask id="path-7-inside-1_265_296" fill="white">
<path fill-rule="evenodd" clip-rule="evenodd" d="M70.8027 96.3833C84.4681 90.4024 99.342 87.1192 114.901 87.1192C130.461 87.1192 145.335 90.4025 159 96.3836C149.267 80.8508 133.144 70.696 114.901 70.696C96.6591 70.696 80.5365 80.8506 70.8027 96.3833Z"/>
</mask>
<path d="M70.8027 96.3833L69.108 95.3213L65.6653 100.815L71.6046 98.2155L70.8027 96.3833ZM159 96.3836L158.199 98.2158L164.138 100.815L160.695 95.3216L159 96.3836ZM71.6046 98.2155C85.0256 92.3415 99.6271 89.1192 114.901 89.1192V85.1192C99.0569 85.1192 83.9105 88.4632 70.0008 94.5511L71.6046 98.2155ZM114.901 89.1192C130.176 89.1192 144.777 92.3416 158.199 98.2158L159.802 94.5514C145.892 88.4633 130.746 85.1192 114.901 85.1192V89.1192ZM114.901 72.696C132.362 72.696 147.886 82.4131 157.306 97.4456L160.695 95.3216C150.648 79.2884 133.926 68.696 114.901 68.696V72.696ZM72.4975 97.4454C81.9177 82.413 97.4407 72.696 114.901 72.696V68.696C95.8775 68.696 79.1553 79.2883 69.108 95.3213L72.4975 97.4454Z" fill="white" mask="url(#path-7-inside-1_265_296)"/>
</g>
<defs>
<linearGradient id="paint0_linear_265_296" x1="-23.1597" y1="263.628" x2="209.563" y2="267.714" gradientUnits="userSpaceOnUse">
<stop offset="0.00679618" stop-color="#12AAFF" stop-opacity="0.83"/>
<stop offset="1" stop-color="#1577CA"/>
</linearGradient>
<clipPath id="clip0_265_296">
<rect width="230" height="230" fill="white"/>
</clipPath>
</defs>
</svg>
