<svg width="64" height="64" viewBox="0 0 64 64" fill="none" xmlns="http://www.w3.org/2000/svg">
<circle cx="32" cy="32" r="32" fill="url(#paint0_linear_865_66404)"/>
<path d="M33.494 15.0009C29.7326 14.8887 32.5337 25.3085 24.1309 28.8931L24.147 42.065C24.147 43.8736 25.0752 45.2341 26.932 45.6982C30.6612 46.8025 32.5177 47.9709 39.4965 48.4189C42.2815 48.4189 45.6264 47.3785 46.0105 44.7857C46.4746 41.6166 47.4028 37.0873 47.5951 33.4545C47.7551 30.6537 46.9388 28.4768 43.2255 28.0287C40.4247 27.5646 37.9438 27.8687 35.3189 28.0287C38.5677 21.2265 40.0243 15.0004 33.4943 15.0004L33.494 15.0009ZM19.6172 25.628C17.8086 25.628 16 26.7481 16 29.005V43.0093C16 47.5228 23.2343 47.5228 23.2343 43.0093V29.005C23.2343 26.7483 21.4257 25.628 19.6172 25.628Z" fill="white"/>
<defs>
<linearGradient id="paint0_linear_865_66404" x1="6.26087" y1="74.4348" x2="166.957" y2="-16" gradientUnits="userSpaceOnUse">
<stop stop-color="#FF9623"/>
<stop offset="1" stop-color="#F30F00"/>
</linearGradient>
</defs>
</svg>
